<svg width="313" height="411" viewBox="0 0 313 411" fill="none" xmlns="http://www.w3.org/2000/svg">
<path d="M591.427 410.579L558.7 406.181C525.973 401.783 460.519 392.988 411.73 369.42C362.94 345.853 330.815 307.514 313.791 255.788C296.767 204.062 294.845 138.949 251.263 110.765C207.681 82.5819 122.439 91.3278 84.3766 58.2511C46.4186 25.0821 55.5367 -49.8171 49.4488 -111.237C43.3608 -172.657 22.0669 -220.598 11.3158 -244.476L0.668913 -268.446L101.695 -358L118.278 -339.292C134.862 -320.584 168.029 -283.168 201.196 -245.752C234.363 -208.337 267.53 -170.921 300.697 -133.505C333.864 -96.089 367.031 -58.6731 400.198 -21.2572C433.365 16.1586 466.532 53.5745 499.699 90.9903C532.866 128.406 566.033 165.822 599.201 203.238C632.368 240.654 665.535 278.07 682.118 296.778L698.702 315.485L591.427 410.579Z" fill="#0D5413"/>
</svg>
