<svg width="732" height="317" viewBox="0 0 732 317" fill="none" xmlns="http://www.w3.org/2000/svg">
<path d="M101.367 0.394039L134.299 2.81741C167.231 5.24078 233.095 10.0875 283.213 30.6806C333.33 51.2737 367.701 87.6132 387.802 138.223C407.903 188.832 413.734 253.712 458.931 279.226C504.128 304.74 588.691 290.888 628.672 321.618C668.554 352.446 663.953 427.758 673.72 488.701C683.488 549.644 707.624 596.219 719.79 619.408L731.858 642.695L636.396 738.157L618.718 720.48C601.041 702.802 565.685 667.447 530.33 632.091C494.975 596.736 459.619 561.381 424.264 526.025C388.909 490.67 353.553 455.315 318.198 419.959C282.843 384.604 247.487 349.249 212.132 313.893C176.777 278.538 141.421 243.183 106.066 207.827C70.7106 172.472 35.3553 137.117 17.6776 119.439L-4.51489e-05 101.761L101.367 0.394039Z" fill="#0D5413"/>
</svg>
